<mxfile host="app.diagrams.net" agent="Mozilla/5.0 (Windows NT 10.0; Win64; x64) AppleWebKit/537.36 (KHTML, like Gecko) Chrome/141.0.0.0 Safari/537.36 Edg/141.0.0.0" version="28.2.7">
  <diagram name="Page-1" id="xa5eS1BhHO2Y8Hw-Xd1o">
    <mxGraphModel dx="1169" dy="645" grid="1" gridSize="10" guides="1" tooltips="1" connect="1" arrows="1" fold="1" page="1" pageScale="1" pageWidth="827" pageHeight="1169" math="0" shadow="0">
      <root>
        <mxCell id="0" />
        <mxCell id="1" parent="0" />
        <mxCell id="DsuncLNuxtgSlJLGwH1R-41" value="«component»&lt;br&gt;&lt;b&gt;Client&lt;/b&gt;&lt;div&gt;&lt;b&gt;&lt;br&gt;&lt;/b&gt;&lt;/div&gt;&lt;div&gt;&lt;b&gt;&lt;br&gt;&lt;/b&gt;&lt;/div&gt;&lt;div&gt;&lt;b&gt;&lt;br&gt;&lt;/b&gt;&lt;/div&gt;&lt;div&gt;&lt;b&gt;&lt;br&gt;&lt;/b&gt;&lt;/div&gt;&lt;div&gt;&lt;b&gt;&lt;br&gt;&lt;/b&gt;&lt;/div&gt;&lt;div&gt;&lt;b&gt;&lt;br&gt;&lt;/b&gt;&lt;/div&gt;&lt;div&gt;&lt;b&gt;&lt;br&gt;&lt;/b&gt;&lt;/div&gt;&lt;div&gt;&lt;b&gt;&lt;br&gt;&lt;/b&gt;&lt;/div&gt;&lt;div&gt;&lt;b&gt;&lt;br&gt;&lt;/b&gt;&lt;/div&gt;&lt;div&gt;&lt;b&gt;&lt;br&gt;&lt;/b&gt;&lt;/div&gt;&lt;div&gt;&lt;b&gt;&lt;br&gt;&lt;/b&gt;&lt;/div&gt;&lt;div&gt;&lt;b&gt;&lt;br&gt;&lt;/b&gt;&lt;/div&gt;&lt;div&gt;&lt;b&gt;&lt;br&gt;&lt;/b&gt;&lt;/div&gt;" style="html=1;dropTarget=0;whiteSpace=wrap;" parent="1" vertex="1">
          <mxGeometry x="14" y="370" width="200" height="220" as="geometry" />
        </mxCell>
        <mxCell id="DsuncLNuxtgSlJLGwH1R-42" value="" style="shape=module;jettyWidth=8;jettyHeight=4;" parent="DsuncLNuxtgSlJLGwH1R-41" vertex="1">
          <mxGeometry x="1" width="20" height="20" relative="1" as="geometry">
            <mxPoint x="-27" y="7" as="offset" />
          </mxGeometry>
        </mxCell>
        <mxCell id="DsuncLNuxtgSlJLGwH1R-43" value="«component»&lt;br&gt;&lt;b&gt;UI&lt;/b&gt;" style="html=1;dropTarget=0;whiteSpace=wrap;" parent="1" vertex="1">
          <mxGeometry x="49" y="410" width="130" height="60" as="geometry" />
        </mxCell>
        <mxCell id="DsuncLNuxtgSlJLGwH1R-44" value="" style="shape=module;jettyWidth=8;jettyHeight=4;" parent="DsuncLNuxtgSlJLGwH1R-43" vertex="1">
          <mxGeometry x="1" width="20" height="20" relative="1" as="geometry">
            <mxPoint x="-27" y="7" as="offset" />
          </mxGeometry>
        </mxCell>
        <mxCell id="DsuncLNuxtgSlJLGwH1R-45" value="«component»&lt;br&gt;&lt;b&gt;Data&lt;/b&gt;" style="html=1;dropTarget=0;whiteSpace=wrap;" parent="1" vertex="1">
          <mxGeometry x="49" y="520" width="130" height="60" as="geometry" />
        </mxCell>
        <mxCell id="DsuncLNuxtgSlJLGwH1R-46" value="" style="shape=module;jettyWidth=8;jettyHeight=4;" parent="DsuncLNuxtgSlJLGwH1R-45" vertex="1">
          <mxGeometry x="1" width="20" height="20" relative="1" as="geometry">
            <mxPoint x="-27" y="7" as="offset" />
          </mxGeometry>
        </mxCell>
        <mxCell id="DsuncLNuxtgSlJLGwH1R-47" value="" style="rounded=0;orthogonalLoop=1;jettySize=auto;html=1;endArrow=halfCircle;endFill=0;endSize=6;strokeWidth=1;sketch=0;exitX=0.5;exitY=0;exitDx=0;exitDy=0;" parent="1" source="DsuncLNuxtgSlJLGwH1R-45" target="DsuncLNuxtgSlJLGwH1R-49" edge="1">
          <mxGeometry relative="1" as="geometry">
            <mxPoint x="209" y="515" as="sourcePoint" />
          </mxGeometry>
        </mxCell>
        <mxCell id="DsuncLNuxtgSlJLGwH1R-50" value="" style="rounded=0;orthogonalLoop=1;jettySize=auto;html=1;endArrow=oval;endFill=0;sketch=0;sourcePerimeterSpacing=0;targetPerimeterSpacing=0;endSize=10;exitX=0.5;exitY=1;exitDx=0;exitDy=0;" parent="1" source="DsuncLNuxtgSlJLGwH1R-43" target="DsuncLNuxtgSlJLGwH1R-49" edge="1">
          <mxGeometry relative="1" as="geometry">
            <mxPoint x="104" y="480" as="sourcePoint" />
            <mxPoint x="104" y="500" as="targetPoint" />
          </mxGeometry>
        </mxCell>
        <mxCell id="DsuncLNuxtgSlJLGwH1R-49" value="" style="ellipse;whiteSpace=wrap;html=1;align=center;aspect=fixed;fillColor=none;strokeColor=none;resizable=0;perimeter=centerPerimeter;rotatable=0;allowArrows=0;points=[];outlineConnect=1;" parent="1" vertex="1">
          <mxGeometry x="109" y="490" width="10" height="10" as="geometry" />
        </mxCell>
        <mxCell id="DsuncLNuxtgSlJLGwH1R-51" value="«component»&lt;br&gt;&lt;b&gt;Server&lt;/b&gt;&lt;div&gt;&lt;div&gt;&lt;b&gt;&lt;br&gt;&lt;/b&gt;&lt;/div&gt;&lt;div&gt;&lt;b&gt;&lt;br&gt;&lt;/b&gt;&lt;/div&gt;&lt;div&gt;&lt;b&gt;&lt;br&gt;&lt;/b&gt;&lt;/div&gt;&lt;div&gt;&lt;b&gt;&lt;br&gt;&lt;/b&gt;&lt;/div&gt;&lt;div&gt;&lt;b&gt;&lt;br&gt;&lt;/b&gt;&lt;/div&gt;&lt;div&gt;&lt;b&gt;&lt;br&gt;&lt;/b&gt;&lt;/div&gt;&lt;div&gt;&lt;b&gt;&lt;br&gt;&lt;/b&gt;&lt;/div&gt;&lt;div&gt;&lt;b&gt;&lt;br&gt;&lt;/b&gt;&lt;/div&gt;&lt;div&gt;&lt;b&gt;&lt;br&gt;&lt;/b&gt;&lt;/div&gt;&lt;div&gt;&lt;b&gt;&lt;br&gt;&lt;/b&gt;&lt;/div&gt;&lt;div&gt;&lt;b&gt;&lt;br&gt;&lt;/b&gt;&lt;/div&gt;&lt;div&gt;&lt;b&gt;&lt;br&gt;&lt;/b&gt;&lt;/div&gt;&lt;div&gt;&lt;b&gt;&lt;br&gt;&lt;/b&gt;&lt;/div&gt;&lt;/div&gt;" style="html=1;dropTarget=0;whiteSpace=wrap;" parent="1" vertex="1">
          <mxGeometry x="269" y="370" width="365" height="220" as="geometry" />
        </mxCell>
        <mxCell id="DsuncLNuxtgSlJLGwH1R-52" value="" style="shape=module;jettyWidth=8;jettyHeight=4;" parent="DsuncLNuxtgSlJLGwH1R-51" vertex="1">
          <mxGeometry x="1" width="20" height="20" relative="1" as="geometry">
            <mxPoint x="-27" y="7" as="offset" />
          </mxGeometry>
        </mxCell>
        <mxCell id="DsuncLNuxtgSlJLGwH1R-53" value="«component»&lt;br&gt;&lt;b&gt;Controller&lt;/b&gt;" style="html=1;dropTarget=0;whiteSpace=wrap;" parent="1" vertex="1">
          <mxGeometry x="304" y="520" width="130" height="60" as="geometry" />
        </mxCell>
        <mxCell id="DsuncLNuxtgSlJLGwH1R-54" value="" style="shape=module;jettyWidth=8;jettyHeight=4;" parent="DsuncLNuxtgSlJLGwH1R-53" vertex="1">
          <mxGeometry x="1" width="20" height="20" relative="1" as="geometry">
            <mxPoint x="-27" y="7" as="offset" />
          </mxGeometry>
        </mxCell>
        <mxCell id="DsuncLNuxtgSlJLGwH1R-55" value="«component»&lt;br&gt;&lt;b&gt;AI&lt;/b&gt;" style="html=1;dropTarget=0;whiteSpace=wrap;" parent="1" vertex="1">
          <mxGeometry x="304" y="410" width="130" height="60" as="geometry" />
        </mxCell>
        <mxCell id="DsuncLNuxtgSlJLGwH1R-56" value="" style="shape=module;jettyWidth=8;jettyHeight=4;" parent="DsuncLNuxtgSlJLGwH1R-55" vertex="1">
          <mxGeometry x="1" width="20" height="20" relative="1" as="geometry">
            <mxPoint x="-27" y="7" as="offset" />
          </mxGeometry>
        </mxCell>
        <mxCell id="DsuncLNuxtgSlJLGwH1R-57" value="«component»&lt;br&gt;&lt;b&gt;Service&lt;/b&gt;" style="html=1;dropTarget=0;whiteSpace=wrap;" parent="1" vertex="1">
          <mxGeometry x="474" y="520" width="130" height="60" as="geometry" />
        </mxCell>
        <mxCell id="DsuncLNuxtgSlJLGwH1R-58" value="" style="shape=module;jettyWidth=8;jettyHeight=4;" parent="DsuncLNuxtgSlJLGwH1R-57" vertex="1">
          <mxGeometry x="1" width="20" height="20" relative="1" as="geometry">
            <mxPoint x="-27" y="7" as="offset" />
          </mxGeometry>
        </mxCell>
        <mxCell id="DsuncLNuxtgSlJLGwH1R-103" style="edgeStyle=orthogonalEdgeStyle;rounded=0;orthogonalLoop=1;jettySize=auto;html=1;entryX=0;entryY=0.5;entryDx=0;entryDy=0;endArrow=none;endFill=0;" parent="1" source="DsuncLNuxtgSlJLGwH1R-61" target="DsuncLNuxtgSlJLGwH1R-96" edge="1">
          <mxGeometry relative="1" as="geometry" />
        </mxCell>
        <mxCell id="DsuncLNuxtgSlJLGwH1R-61" value="«component»&lt;br&gt;&lt;b&gt;Repository&lt;/b&gt;" style="html=1;dropTarget=0;whiteSpace=wrap;" parent="1" vertex="1">
          <mxGeometry x="474" y="410" width="130" height="60" as="geometry" />
        </mxCell>
        <mxCell id="DsuncLNuxtgSlJLGwH1R-62" value="" style="shape=module;jettyWidth=8;jettyHeight=4;" parent="DsuncLNuxtgSlJLGwH1R-61" vertex="1">
          <mxGeometry x="1" width="20" height="20" relative="1" as="geometry">
            <mxPoint x="-27" y="7" as="offset" />
          </mxGeometry>
        </mxCell>
        <mxCell id="DsuncLNuxtgSlJLGwH1R-64" value="" style="rounded=0;orthogonalLoop=1;jettySize=auto;html=1;endArrow=halfCircle;endFill=0;endSize=6;strokeWidth=1;sketch=0;exitX=0.5;exitY=0;exitDx=0;exitDy=0;entryX=0.671;entryY=0.089;entryDx=0;entryDy=0;entryPerimeter=0;" parent="1" source="DsuncLNuxtgSlJLGwH1R-53" target="DsuncLNuxtgSlJLGwH1R-66" edge="1">
          <mxGeometry relative="1" as="geometry">
            <mxPoint x="324" y="495" as="sourcePoint" />
          </mxGeometry>
        </mxCell>
        <mxCell id="DsuncLNuxtgSlJLGwH1R-65" value="" style="rounded=0;orthogonalLoop=1;jettySize=auto;html=1;endArrow=oval;endFill=0;sketch=0;sourcePerimeterSpacing=0;targetPerimeterSpacing=0;endSize=10;exitX=0.5;exitY=1;exitDx=0;exitDy=0;" parent="1" source="DsuncLNuxtgSlJLGwH1R-55" target="DsuncLNuxtgSlJLGwH1R-66" edge="1">
          <mxGeometry relative="1" as="geometry">
            <mxPoint x="284" y="495" as="sourcePoint" />
            <mxPoint x="369" y="500" as="targetPoint" />
          </mxGeometry>
        </mxCell>
        <mxCell id="DsuncLNuxtgSlJLGwH1R-66" value="" style="ellipse;whiteSpace=wrap;html=1;align=center;aspect=fixed;fillColor=none;strokeColor=none;resizable=0;perimeter=centerPerimeter;rotatable=0;allowArrows=0;points=[];outlineConnect=1;" parent="1" vertex="1">
          <mxGeometry x="364" y="490" width="10" height="10" as="geometry" />
        </mxCell>
        <mxCell id="DsuncLNuxtgSlJLGwH1R-69" value="" style="ellipse;whiteSpace=wrap;html=1;align=center;aspect=fixed;fillColor=none;strokeColor=none;resizable=0;perimeter=centerPerimeter;rotatable=0;allowArrows=0;points=[];outlineConnect=1;" parent="1" vertex="1">
          <mxGeometry x="439" y="600" width="10" height="10" as="geometry" />
        </mxCell>
        <mxCell id="DsuncLNuxtgSlJLGwH1R-73" value="" style="html=1;rounded=0;" parent="1" vertex="1">
          <mxGeometry x="204" y="546" width="20" height="20" as="geometry" />
        </mxCell>
        <mxCell id="DsuncLNuxtgSlJLGwH1R-74" value="" style="endArrow=none;html=1;rounded=0;align=center;verticalAlign=top;endFill=0;labelBackgroundColor=none;endSize=2;" parent="1" source="DsuncLNuxtgSlJLGwH1R-73" target="DsuncLNuxtgSlJLGwH1R-75" edge="1">
          <mxGeometry relative="1" as="geometry" />
        </mxCell>
        <mxCell id="DsuncLNuxtgSlJLGwH1R-75" value="" style="ellipse;html=1;fontSize=11;align=center;fillColor=#f8cecc;points=[];aspect=fixed;resizable=0;verticalAlign=bottom;labelPosition=center;verticalLabelPosition=top;flipH=1;strokeColor=#b85450;" parent="1" vertex="1">
          <mxGeometry x="234" y="552" width="8" height="8" as="geometry" />
        </mxCell>
        <mxCell id="DsuncLNuxtgSlJLGwH1R-79" value="" style="html=1;rounded=0;" parent="1" vertex="1">
          <mxGeometry x="264" y="546" width="18" height="20" as="geometry" />
        </mxCell>
        <mxCell id="DsuncLNuxtgSlJLGwH1R-80" value="" style="endArrow=none;html=1;rounded=0;align=center;verticalAlign=top;endFill=0;labelBackgroundColor=none;endSize=2;" parent="1" source="DsuncLNuxtgSlJLGwH1R-79" target="DsuncLNuxtgSlJLGwH1R-81" edge="1">
          <mxGeometry relative="1" as="geometry" />
        </mxCell>
        <mxCell id="DsuncLNuxtgSlJLGwH1R-81" value="" style="shape=requiredInterface;html=1;fontSize=11;align=center;fillColor=#f8cecc;points=[];aspect=fixed;resizable=0;verticalAlign=bottom;labelPosition=center;verticalLabelPosition=top;flipH=1;rotation=-180;strokeColor=#b85450;" parent="1" vertex="1">
          <mxGeometry x="242" y="551" width="5" height="10" as="geometry" />
        </mxCell>
        <mxCell id="DsuncLNuxtgSlJLGwH1R-82" value="" style="line;strokeWidth=1;fillColor=none;align=left;verticalAlign=middle;spacingTop=-1;spacingLeft=3;spacingRight=3;rotatable=0;labelPosition=right;points=[];portConstraint=eastwest;strokeColor=inherit;" parent="1" vertex="1">
          <mxGeometry x="179" y="553" width="25" height="8" as="geometry" />
        </mxCell>
        <mxCell id="DsuncLNuxtgSlJLGwH1R-83" value="" style="line;strokeWidth=1;fillColor=none;align=left;verticalAlign=middle;spacingTop=-1;spacingLeft=3;spacingRight=3;rotatable=0;labelPosition=right;points=[];portConstraint=eastwest;strokeColor=inherit;" parent="1" vertex="1">
          <mxGeometry x="282" y="553" width="22" height="8" as="geometry" />
        </mxCell>
        <mxCell id="DsuncLNuxtgSlJLGwH1R-85" value="«component»&lt;br&gt;&lt;b&gt;Data Base&lt;/b&gt;" style="html=1;dropTarget=0;whiteSpace=wrap;" parent="1" vertex="1">
          <mxGeometry x="684" y="410" width="130" height="60" as="geometry" />
        </mxCell>
        <mxCell id="DsuncLNuxtgSlJLGwH1R-86" value="" style="shape=module;jettyWidth=8;jettyHeight=4;" parent="DsuncLNuxtgSlJLGwH1R-85" vertex="1">
          <mxGeometry x="1" width="20" height="20" relative="1" as="geometry">
            <mxPoint x="-27" y="7" as="offset" />
          </mxGeometry>
        </mxCell>
        <mxCell id="DsuncLNuxtgSlJLGwH1R-90" value="" style="rounded=0;orthogonalLoop=1;jettySize=auto;html=1;endArrow=halfCircle;endFill=0;endSize=6;strokeWidth=1;sketch=0;exitX=0;exitY=0.5;exitDx=0;exitDy=0;" parent="1" source="DsuncLNuxtgSlJLGwH1R-57" target="DsuncLNuxtgSlJLGwH1R-92" edge="1">
          <mxGeometry relative="1" as="geometry">
            <mxPoint x="494" y="548" as="sourcePoint" />
          </mxGeometry>
        </mxCell>
        <mxCell id="DsuncLNuxtgSlJLGwH1R-91" value="" style="rounded=0;orthogonalLoop=1;jettySize=auto;html=1;endArrow=oval;endFill=0;sketch=0;sourcePerimeterSpacing=0;targetPerimeterSpacing=0;endSize=10;exitX=1;exitY=0.5;exitDx=0;exitDy=0;" parent="1" source="DsuncLNuxtgSlJLGwH1R-53" target="DsuncLNuxtgSlJLGwH1R-92" edge="1">
          <mxGeometry relative="1" as="geometry">
            <mxPoint x="454" y="548" as="sourcePoint" />
          </mxGeometry>
        </mxCell>
        <mxCell id="DsuncLNuxtgSlJLGwH1R-92" value="" style="ellipse;whiteSpace=wrap;html=1;align=center;aspect=fixed;fillColor=none;strokeColor=none;resizable=0;perimeter=centerPerimeter;rotatable=0;allowArrows=0;points=[];outlineConnect=1;" parent="1" vertex="1">
          <mxGeometry x="449" y="545" width="10" height="10" as="geometry" />
        </mxCell>
        <mxCell id="DsuncLNuxtgSlJLGwH1R-96" value="" style="html=1;rounded=0;" parent="1" vertex="1">
          <mxGeometry x="629" y="429.5" width="20" height="21" as="geometry" />
        </mxCell>
        <mxCell id="DsuncLNuxtgSlJLGwH1R-104" value="«component»&lt;br&gt;&lt;b&gt;UI&lt;/b&gt;" style="html=1;dropTarget=0;whiteSpace=wrap;" parent="1" vertex="1">
          <mxGeometry x="94" y="150" width="130" height="60" as="geometry" />
        </mxCell>
        <mxCell id="DsuncLNuxtgSlJLGwH1R-105" value="" style="shape=module;jettyWidth=8;jettyHeight=4;" parent="DsuncLNuxtgSlJLGwH1R-104" vertex="1">
          <mxGeometry x="1" width="20" height="20" relative="1" as="geometry">
            <mxPoint x="-27" y="7" as="offset" />
          </mxGeometry>
        </mxCell>
        <mxCell id="DsuncLNuxtgSlJLGwH1R-106" value="«component»&lt;br&gt;&lt;b&gt;Data&lt;/b&gt;&lt;div&gt;&lt;br&gt;&lt;/div&gt;&lt;div&gt;&lt;b&gt;&lt;br&gt;&lt;/b&gt;&lt;/div&gt;&lt;div&gt;&lt;b&gt;&lt;br&gt;&lt;/b&gt;&lt;/div&gt;&lt;div&gt;&lt;b&gt;&lt;br&gt;&lt;/b&gt;&lt;/div&gt;&lt;div&gt;&lt;b&gt;&lt;br&gt;&lt;/b&gt;&lt;/div&gt;&lt;div&gt;&lt;b&gt;&lt;br&gt;&lt;/b&gt;&lt;/div&gt;&lt;div&gt;&lt;b&gt;&lt;br&gt;&lt;/b&gt;&lt;/div&gt;&lt;div&gt;&lt;b&gt;&lt;br&gt;&lt;/b&gt;&lt;/div&gt;&lt;div&gt;&lt;b&gt;&lt;br&gt;&lt;/b&gt;&lt;/div&gt;&lt;div&gt;&lt;b&gt;&lt;br&gt;&lt;/b&gt;&lt;/div&gt;&lt;div&gt;&lt;b&gt;&lt;br&gt;&lt;/b&gt;&lt;/div&gt;&lt;div&gt;&lt;b&gt;&lt;br&gt;&lt;/b&gt;&lt;/div&gt;&lt;div&gt;&lt;b&gt;&lt;br&gt;&lt;/b&gt;&lt;/div&gt;&lt;div&gt;&lt;b&gt;&lt;br&gt;&lt;/b&gt;&lt;/div&gt;&lt;div&gt;&lt;b&gt;&lt;br&gt;&lt;/b&gt;&lt;/div&gt;" style="html=1;dropTarget=0;whiteSpace=wrap;" parent="1" vertex="1">
          <mxGeometry x="284" y="30" width="445" height="260" as="geometry" />
        </mxCell>
        <mxCell id="DsuncLNuxtgSlJLGwH1R-107" value="" style="shape=module;jettyWidth=8;jettyHeight=4;" parent="DsuncLNuxtgSlJLGwH1R-106" vertex="1">
          <mxGeometry x="1" width="20" height="20" relative="1" as="geometry">
            <mxPoint x="-27" y="7" as="offset" />
          </mxGeometry>
        </mxCell>
        <mxCell id="DsuncLNuxtgSlJLGwH1R-130" style="edgeStyle=orthogonalEdgeStyle;rounded=0;orthogonalLoop=1;jettySize=auto;html=1;endArrow=none;endFill=0;" parent="1" source="DsuncLNuxtgSlJLGwH1R-108" target="DsuncLNuxtgSlJLGwH1R-127" edge="1">
          <mxGeometry relative="1" as="geometry" />
        </mxCell>
        <mxCell id="DsuncLNuxtgSlJLGwH1R-108" value="«component»&lt;br&gt;&lt;b&gt;Repository&lt;/b&gt;" style="html=1;dropTarget=0;whiteSpace=wrap;" parent="1" vertex="1">
          <mxGeometry x="334" y="140" width="135" height="77.5" as="geometry" />
        </mxCell>
        <mxCell id="DsuncLNuxtgSlJLGwH1R-109" value="" style="shape=module;jettyWidth=8;jettyHeight=4;" parent="DsuncLNuxtgSlJLGwH1R-108" vertex="1">
          <mxGeometry x="1" width="20" height="20" relative="1" as="geometry">
            <mxPoint x="-27" y="7" as="offset" />
          </mxGeometry>
        </mxCell>
        <mxCell id="DsuncLNuxtgSlJLGwH1R-110" value="«component»&lt;br&gt;&lt;b&gt;Data Source&lt;/b&gt;&lt;div&gt;&lt;br&gt;&lt;/div&gt;&lt;div&gt;&lt;b&gt;&lt;br&gt;&lt;/b&gt;&lt;/div&gt;&lt;div&gt;&lt;b&gt;&lt;br&gt;&lt;/b&gt;&lt;/div&gt;&lt;div&gt;&lt;b&gt;&lt;br&gt;&lt;/b&gt;&lt;/div&gt;&lt;div&gt;&lt;b&gt;&lt;br&gt;&lt;/b&gt;&lt;/div&gt;&lt;div&gt;&lt;br&gt;&lt;/div&gt;&lt;div&gt;&lt;br&gt;&lt;/div&gt;&lt;div&gt;&lt;br&gt;&lt;/div&gt;&lt;div&gt;&lt;br&gt;&lt;/div&gt;&lt;div&gt;&lt;br&gt;&lt;/div&gt;&lt;div&gt;&lt;br&gt;&lt;/div&gt;" style="html=1;dropTarget=0;whiteSpace=wrap;" parent="1" vertex="1">
          <mxGeometry x="529" y="75" width="185" height="195" as="geometry" />
        </mxCell>
        <mxCell id="DsuncLNuxtgSlJLGwH1R-111" value="" style="shape=module;jettyWidth=8;jettyHeight=4;" parent="DsuncLNuxtgSlJLGwH1R-110" vertex="1">
          <mxGeometry x="1" width="20" height="20" relative="1" as="geometry">
            <mxPoint x="-27" y="7" as="offset" />
          </mxGeometry>
        </mxCell>
        <mxCell id="DsuncLNuxtgSlJLGwH1R-123" style="edgeStyle=orthogonalEdgeStyle;rounded=0;orthogonalLoop=1;jettySize=auto;html=1;entryX=1;entryY=0.5;entryDx=0;entryDy=0;endArrow=none;endFill=0;" parent="1" source="DsuncLNuxtgSlJLGwH1R-112" target="DsuncLNuxtgSlJLGwH1R-120" edge="1">
          <mxGeometry relative="1" as="geometry" />
        </mxCell>
        <mxCell id="DsuncLNuxtgSlJLGwH1R-112" value="«component»&lt;br&gt;&lt;b&gt;AI&lt;/b&gt;" style="html=1;dropTarget=0;whiteSpace=wrap;" parent="1" vertex="1">
          <mxGeometry x="569" y="120" width="130" height="60" as="geometry" />
        </mxCell>
        <mxCell id="DsuncLNuxtgSlJLGwH1R-113" value="" style="shape=module;jettyWidth=8;jettyHeight=4;" parent="DsuncLNuxtgSlJLGwH1R-112" vertex="1">
          <mxGeometry x="1" width="20" height="20" relative="1" as="geometry">
            <mxPoint x="-27" y="7" as="offset" />
          </mxGeometry>
        </mxCell>
        <mxCell id="DsuncLNuxtgSlJLGwH1R-124" style="edgeStyle=orthogonalEdgeStyle;rounded=0;orthogonalLoop=1;jettySize=auto;html=1;entryX=1;entryY=0.5;entryDx=0;entryDy=0;endArrow=none;endFill=0;" parent="1" source="DsuncLNuxtgSlJLGwH1R-114" target="DsuncLNuxtgSlJLGwH1R-120" edge="1">
          <mxGeometry relative="1" as="geometry" />
        </mxCell>
        <mxCell id="DsuncLNuxtgSlJLGwH1R-114" value="«component»&lt;br&gt;&lt;b&gt;Local Data Base&lt;/b&gt;" style="html=1;dropTarget=0;whiteSpace=wrap;" parent="1" vertex="1">
          <mxGeometry x="569" y="194" width="130" height="60" as="geometry" />
        </mxCell>
        <mxCell id="DsuncLNuxtgSlJLGwH1R-115" value="" style="shape=module;jettyWidth=8;jettyHeight=4;" parent="DsuncLNuxtgSlJLGwH1R-114" vertex="1">
          <mxGeometry x="1" width="20" height="20" relative="1" as="geometry">
            <mxPoint x="-27" y="7" as="offset" />
          </mxGeometry>
        </mxCell>
        <mxCell id="DsuncLNuxtgSlJLGwH1R-116" value="&lt;b&gt;&lt;i&gt;Client-Server App&lt;/i&gt;&lt;/b&gt;" style="shape=umlFrame;whiteSpace=wrap;html=1;pointerEvents=0;width=120;height=30;fillColor=#fff2cc;strokeColor=#d6b656;" parent="1" vertex="1">
          <mxGeometry x="4" y="330" width="820" height="280" as="geometry" />
        </mxCell>
        <mxCell id="DsuncLNuxtgSlJLGwH1R-118" value="" style="endArrow=none;html=1;rounded=0;align=center;verticalAlign=top;endFill=0;labelBackgroundColor=none;endSize=2;exitX=1;exitY=0.5;exitDx=0;exitDy=0;" parent="1" source="DsuncLNuxtgSlJLGwH1R-108" target="DsuncLNuxtgSlJLGwH1R-119" edge="1">
          <mxGeometry relative="1" as="geometry">
            <mxPoint x="479" y="190" as="sourcePoint" />
          </mxGeometry>
        </mxCell>
        <mxCell id="DsuncLNuxtgSlJLGwH1R-119" value="" style="ellipse;html=1;fontSize=11;align=center;fillColor=none;points=[];aspect=fixed;resizable=0;verticalAlign=bottom;labelPosition=center;verticalLabelPosition=top;flipH=1;" parent="1" vertex="1">
          <mxGeometry x="494" y="174.75" width="8" height="8" as="geometry" />
        </mxCell>
        <mxCell id="DsuncLNuxtgSlJLGwH1R-120" value="" style="html=1;rounded=0;" parent="1" vertex="1">
          <mxGeometry x="519" y="168.75" width="20" height="20" as="geometry" />
        </mxCell>
        <mxCell id="DsuncLNuxtgSlJLGwH1R-121" value="" style="endArrow=none;html=1;rounded=0;align=center;verticalAlign=top;endFill=0;labelBackgroundColor=none;endSize=2;" parent="1" source="DsuncLNuxtgSlJLGwH1R-120" target="DsuncLNuxtgSlJLGwH1R-122" edge="1">
          <mxGeometry relative="1" as="geometry" />
        </mxCell>
        <mxCell id="DsuncLNuxtgSlJLGwH1R-122" value="" style="shape=requiredInterface;html=1;fontSize=11;align=center;fillColor=none;points=[];aspect=fixed;resizable=0;verticalAlign=bottom;labelPosition=center;verticalLabelPosition=top;flipH=1;rotation=-180;" parent="1" vertex="1">
          <mxGeometry x="502" y="173.75" width="5" height="10" as="geometry" />
        </mxCell>
        <mxCell id="DsuncLNuxtgSlJLGwH1R-127" value="" style="html=1;rounded=0;" parent="1" vertex="1">
          <mxGeometry x="264" y="163.75" width="30" height="30" as="geometry" />
        </mxCell>
        <mxCell id="DsuncLNuxtgSlJLGwH1R-133" value="" style="rounded=0;orthogonalLoop=1;jettySize=auto;html=1;endArrow=halfCircle;endFill=0;endSize=6;strokeWidth=1;sketch=0;exitX=0;exitY=0.5;exitDx=0;exitDy=0;" parent="1" source="DsuncLNuxtgSlJLGwH1R-135" edge="1">
          <mxGeometry relative="1" as="geometry">
            <mxPoint x="244" y="185" as="sourcePoint" />
            <mxPoint x="244" y="180" as="targetPoint" />
          </mxGeometry>
        </mxCell>
        <mxCell id="DsuncLNuxtgSlJLGwH1R-134" value="" style="rounded=0;orthogonalLoop=1;jettySize=auto;html=1;endArrow=oval;endFill=0;sketch=0;sourcePerimeterSpacing=0;targetPerimeterSpacing=0;endSize=10;exitX=1;exitY=0.5;exitDx=0;exitDy=0;" parent="1" source="DsuncLNuxtgSlJLGwH1R-104" target="DsuncLNuxtgSlJLGwH1R-135" edge="1">
          <mxGeometry relative="1" as="geometry">
            <mxPoint x="204" y="185" as="sourcePoint" />
          </mxGeometry>
        </mxCell>
        <mxCell id="DsuncLNuxtgSlJLGwH1R-136" value="" style="rounded=0;orthogonalLoop=1;jettySize=auto;html=1;endArrow=halfCircle;endFill=0;endSize=6;strokeWidth=1;sketch=0;exitX=0;exitY=0.5;exitDx=0;exitDy=0;" parent="1" source="DsuncLNuxtgSlJLGwH1R-127" target="DsuncLNuxtgSlJLGwH1R-135" edge="1">
          <mxGeometry relative="1" as="geometry">
            <mxPoint x="264" y="179" as="sourcePoint" />
            <mxPoint x="244" y="180" as="targetPoint" />
          </mxGeometry>
        </mxCell>
        <mxCell id="DsuncLNuxtgSlJLGwH1R-135" value="" style="ellipse;whiteSpace=wrap;html=1;align=center;aspect=fixed;fillColor=none;strokeColor=none;resizable=0;perimeter=centerPerimeter;rotatable=0;allowArrows=0;points=[];outlineConnect=1;" parent="1" vertex="1">
          <mxGeometry x="239" y="175" width="10" height="10" as="geometry" />
        </mxCell>
        <mxCell id="DsuncLNuxtgSlJLGwH1R-137" value="&lt;b&gt;Monolith App&lt;/b&gt;" style="shape=umlFrame;whiteSpace=wrap;html=1;pointerEvents=0;width=120;height=30;fillColor=#d5e8d4;strokeColor=#82b366;" parent="1" vertex="1">
          <mxGeometry x="79" y="10" width="670" height="300" as="geometry" />
        </mxCell>
        <mxCell id="DsuncLNuxtgSlJLGwH1R-138" value="" style="rounded=0;orthogonalLoop=1;jettySize=auto;html=1;endArrow=halfCircle;endFill=0;endSize=6;strokeWidth=1;sketch=0;exitX=0.5;exitY=0;exitDx=0;exitDy=0;" parent="1" source="DsuncLNuxtgSlJLGwH1R-57" target="DsuncLNuxtgSlJLGwH1R-140" edge="1">
          <mxGeometry relative="1" as="geometry">
            <mxPoint x="559" y="495" as="sourcePoint" />
          </mxGeometry>
        </mxCell>
        <mxCell id="DsuncLNuxtgSlJLGwH1R-139" value="" style="rounded=0;orthogonalLoop=1;jettySize=auto;html=1;endArrow=oval;endFill=0;sketch=0;sourcePerimeterSpacing=0;targetPerimeterSpacing=0;endSize=10;exitX=0.5;exitY=1;exitDx=0;exitDy=0;" parent="1" source="DsuncLNuxtgSlJLGwH1R-61" target="DsuncLNuxtgSlJLGwH1R-140" edge="1">
          <mxGeometry relative="1" as="geometry">
            <mxPoint x="519" y="495" as="sourcePoint" />
          </mxGeometry>
        </mxCell>
        <mxCell id="DsuncLNuxtgSlJLGwH1R-140" value="" style="ellipse;whiteSpace=wrap;html=1;align=center;aspect=fixed;fillColor=none;strokeColor=none;resizable=0;perimeter=centerPerimeter;rotatable=0;allowArrows=0;points=[];outlineConnect=1;" parent="1" vertex="1">
          <mxGeometry x="534" y="490" width="10" height="10" as="geometry" />
        </mxCell>
        <mxCell id="DsuncLNuxtgSlJLGwH1R-142" value="" style="rounded=0;orthogonalLoop=1;jettySize=auto;html=1;endArrow=halfCircle;endFill=0;endSize=6;strokeWidth=1;sketch=0;exitX=0;exitY=0.5;exitDx=0;exitDy=0;" parent="1" source="DsuncLNuxtgSlJLGwH1R-85" edge="1">
          <mxGeometry relative="1" as="geometry">
            <mxPoint x="684" y="439.9" as="sourcePoint" />
            <mxPoint x="664" y="439.9" as="targetPoint" />
            <Array as="points">
              <mxPoint x="664" y="439.9" />
            </Array>
          </mxGeometry>
        </mxCell>
        <mxCell id="DsuncLNuxtgSlJLGwH1R-143" value="" style="rounded=0;orthogonalLoop=1;jettySize=auto;html=1;endArrow=oval;endFill=0;sketch=0;sourcePerimeterSpacing=0;targetPerimeterSpacing=0;endSize=10;exitX=1;exitY=0.5;exitDx=0;exitDy=0;" parent="1" source="DsuncLNuxtgSlJLGwH1R-96" edge="1">
          <mxGeometry relative="1" as="geometry">
            <mxPoint x="654" y="440" as="sourcePoint" />
            <mxPoint x="664" y="439.9" as="targetPoint" />
          </mxGeometry>
        </mxCell>
        <mxCell id="DsuncLNuxtgSlJLGwH1R-144" value="" style="ellipse;whiteSpace=wrap;html=1;align=center;aspect=fixed;fillColor=none;strokeColor=none;resizable=0;perimeter=centerPerimeter;rotatable=0;allowArrows=0;points=[];outlineConnect=1;" parent="1" vertex="1">
          <mxGeometry x="679" y="435" width="10" height="10" as="geometry" />
        </mxCell>
      </root>
    </mxGraphModel>
  </diagram>
</mxfile>
